# xmcd
#
# Track frame offsets:
# 150
# 16892
# 28610
# 45253
# 61358
# 80471
# 96507
# 114674
# 131493
# 152500
# 166200
# 184670
# 202338
#
# Disc length: 2901 seconds
#
#
# Revision: 1
# Processed by: cddbd v1.4PL0 Copyright (c) Steve Scherf et al.
# Submitted via: FreeRIP 2.20 
#
DISCID=a50b530d
DTITLE=Mishouris' Swingin' Orchestra - Welcome to Isuisorishuania
DYEAR=2002
DGENRE=Swing
TTITLE0=Sing, Sing, Sing [L.Prima]
TTITLE1=Ain't Nobody Here But Us Chickens [Kramer/Whitley]
TTITLE2=Knock Me A Kiss [Jackson]
TTITLE3=Mailman Sack [Bradshow/Glover/Mann]
TTITLE4=Route 66 [Troup]
TTITLE5=Walkin' My Baby Back Home [Turk/Ahlert]
TTITLE6=16 Tons [M. Travis]
TTITLE7=Good Morning Judge [Innis]
TTITLE8=Is U Is Or Is U Ain't My Baby [Austin/Jogdan]
TTITLE9=Walk That Mess [Bradshow/Glover]
TTITLE10=St. James Infirmary [Primrose]
TTITLE11=Caldonia [Moore]
TTITLE12=So Many Tears
EXTD=
EXTT0=
EXTT1=
EXTT2=
EXTT3=
EXTT4=
EXTT5=
EXTT6=
EXTT7=
EXTT8=
EXTT9=
EXTT10=
EXTT11=
EXTT12=
PLAYORDER=
